<?xml version="1.0" encoding="UTF-8" standalone="no"?>
<!-- Created with Inkscape (http://www.inkscape.org/) -->

<svg
   width="135.467mm"
   height="135.467mm"
   viewBox="0 0 135.46699 135.46699"
   version="1.1"
   id="svg1"
   xml:space="preserve"
   sodipodi:docname="figma.svg"
   inkscape:version="1.3 (0e150ed6c4, 2023-07-21)"
   xmlns:inkscape="http://www.inkscape.org/namespaces/inkscape"
   xmlns:sodipodi="http://sodipodi.sourceforge.net/DTD/sodipodi-0.dtd"
   xmlns="http://www.w3.org/2000/svg"
   xmlns:svg="http://www.w3.org/2000/svg"><sodipodi:namedview
     id="namedview1"
     pagecolor="#ffffff"
     bordercolor="#000000"
     borderopacity="0.25"
     inkscape:showpageshadow="2"
     inkscape:pageopacity="0.0"
     inkscape:pagecheckerboard="0"
     inkscape:deskcolor="#d1d1d1"
     inkscape:document-units="mm"
     inkscape:zoom="0.96393239"
     inkscape:cx="162.35579"
     inkscape:cy="448.68292"
     inkscape:window-width="2560"
     inkscape:window-height="1363"
     inkscape:window-x="0"
     inkscape:window-y="0"
     inkscape:window-maximized="1"
     inkscape:current-layer="layer2" /><defs
     id="defs1" /><g
     inkscape:groupmode="layer"
     id="layer2"
     inkscape:label="Layer 2"
     transform="translate(-43.113739,-87.743782)"><circle
       style="fill:#333333;stroke-width:1.91131;stroke-linecap:square;stroke-miterlimit:1"
       id="path947"
       cx="110.84724"
       cy="155.47728"
       r="67.733498" /></g><g
     inkscape:groupmode="layer"
     id="layer1"
     inkscape:label="Layer 3"
     transform="translate(4.9863284e-6,3.4895653e-4)"><g
       id="g1569"
       transform="translate(-2.3177239,-2.5888619)"><path
         id="path1566"
         style="fill:#f14e1c;fill-opacity:1;stroke:none;stroke-width:2.53616;stroke-linecap:square;stroke-miterlimit:1;stroke-opacity:1"
         d="m 99.164128,116.0343 a 14.01096,14.010966 0 0 0 -14.011419,14.01077 14.01096,14.010966 0 0 0 14.011419,14.01079 14.01096,14.010966 0 0 0 0.530701,-0.0378 v 0.0442 h 13.412861 v -13.07804 a 14.01096,14.010966 0 0 0 0.0672,-0.93914 14.01096,14.010966 0 0 0 -0.0672,-0.93912 V 116.03558 H 99.694829 v 0.0365 a 14.01096,14.010966 0 0 0 -0.530701,-0.0378 z"
         transform="translate(-43.113743,-87.744131)" /><path
         id="path1567"
         style="fill:#ff7362;fill-opacity:1;stroke:none;stroke-width:2.53616;stroke-linecap:square;stroke-miterlimit:1"
         d="m 127.16579,116.03432 a 14.01096,14.010966 0 0 1 14.01142,14.01077 14.01096,14.010966 0 0 1 -14.01142,14.01079 14.01096,14.010966 0 0 1 -0.53069,-0.0378 v 0.0442 h -13.41287 v -13.07804 a 14.01096,14.010966 0 0 1 -0.0673,-0.93914 14.01096,14.010966 0 0 1 0.0673,-0.93912 v -13.07042 h 13.41286 v 0.0365 a 14.01096,14.010966 0 0 1 0.53069,-0.0378 z"
         transform="translate(-43.113743,-87.744131)" /><path
         id="path1568"
         style="fill:#a25aff;fill-opacity:1;stroke:none;stroke-width:2.53616;stroke-linecap:square;stroke-miterlimit:1;stroke-opacity:1"
         d="m 99.164128,144.05232 a 14.01096,14.010966 0 0 0 -14.011419,14.01077 14.01096,14.010966 0 0 0 14.011419,14.01079 14.01096,14.010966 0 0 0 0.530701,-0.0378 v 0.0442 h 13.412861 v -13.07804 a 14.01096,14.010966 0 0 0 0.0672,-0.93914 14.01096,14.010966 0 0 0 -0.0672,-0.93912 V 144.0536 H 99.694829 v 0.0365 a 14.01096,14.010966 0 0 0 -0.530701,-0.0378 z"
         transform="translate(-43.113743,-87.744131)" /><path
         style="fill:#0bcf84;stroke:none;stroke-width:1.22798"
         d="m 69.664458,84.414839 c -5.43446,0 -12.28603,-0.48317 -17.54479,0.80649 -15.04016,3.68847 -12.02475,26.082441 2.92413,27.106141 2.09083,0.14317 4.24004,-0.30597 6.17317,-1.09304 2.13913,-0.87095 3.94893,-2.2995 5.41656,-4.07634 1.69308,-2.04978 2.51901,-4.55154 2.8918,-7.14787 0.69251,-4.823151 0.13913,-10.724051 0.13913,-15.595381 z"
         id="path129-0"
         sodipodi:nodetypes="csssssc" /><path
         style="fill:#1bbcfd;stroke:none;stroke-width:1.22798"
         d="m 81.543489,56.792399 c -10.262112,1.616 -14.513053,14.3095 -8.275766,22.27445 3.126001,3.99187 8.573159,5.58586 13.47422,4.76901 9.72169,-1.62027 13.995747,-13.44154 8.73831,-21.33784 -3.067095,-4.60657 -8.587514,-6.54798 -13.936764,-5.70562 z"
         id="path63-9" /></g></g></svg>
